{"title":"All.Star.Superman.2011.720p.BRRip.x264.Feel-Free","uid":6208589,"size":2321426647,"categoryP":"video","categoryS":"hd___movies","magnet":"?xt=urn:btih:0d992a3fd0fe0bb691a5b0e5d829a5494ff683a0&amp;dn=All.Star.Superman.2011.720p.BRRip.x264.Feel-Free&amp;tr=udp%3A%2F%2Ftracker.openbittorrent.com%3A80&amp;tr=udp%3A%2F%2Fopen.demonii.com%3A1337&amp;tr=udp%3A%2F%2Ftracker.coppersurfer.tk%3A6969&amp;tr=udp%3A%2F%2Fexodus.desync.com%3A6969","seeders":0,"leechers":1,"uploader":"hiest","files":-1,"time":1298901773,"description":"\n #######                         #######                      \n #       ###### ###### #         #       #####  ###### ###### \n #       #      #      #         #       #    # #      #      \n #####   #####  #####  #         #####   #    # #####  #####  \n #       #      #      #         #       #####  #      #      \n #       #      #      #         #       #   #  #      #      \n #       ###### ###### ######    #       #    # ###### ###### \n                                                              \n\nGenre:Animation\nLanguage:English\nIMDb: &lt;a href=&quot;\nhttp://www.imdb.com/title/tt1699114/&quot; rel=&quot;nofollow&quot; target=&quot;_NEW&quot;&gt;\nhttp://www.imdb.com/title/tt1699114/&lt;/a&gt;\nSource:1080p.DTS.x264-CHD\n\n\nFormat : MPEG-4\nFormat profile : Base Media\nCodec ID : isom\nFile size : 2.16 GiB\nDuration : 1h 16mn\nOverall bit rate : 4 034 Kbps\n\nVideo\nFormat profile : &lt;a class=&quot;__cf_email__&quot; href=&quot;/cdn-cgi/l/email-protection&quot; data-cfemail=&quot;fab2939d92bab6ced4cb&quot;&gt;[email&amp;#160;protected]&lt;/a&gt;&lt;script cf-hash='f9e31' type=&quot;text/javascript&quot;&gt;\n/* &lt;![CDATA[ */!function(){try{var t=&quot;currentScript&quot;in document?document.currentScript:function(){for(var t=document.getElementsByTagName(&quot;script&quot;),e=t.length;e--;)if(t[e].getAttribute(&quot;cf-hash&quot;))return t[e]}();if(t&amp;&amp;t.previousSibling){var e,r,n,i,c=t.previousSibling,a=c.getAttribute(&quot;data-cfemail&quot;);if(a){for(e=&quot;&quot;,r=parseInt(a.substr(0,2),16),n=2;a.length-n;n+=2)i=parseInt(a.substr(n,2),16)^r,e+=String.fromCharCode(i);e=document.createTextNode(e),c.parentNode.replaceChild(e,c)}}}catch(u){}}();/* ]]&gt; */&lt;/script&gt;\nFormat settings, CABAC : Yes\nFormat settings, ReFrames : 3 frames\nCodec ID : avc1\nCodec ID/Info : Advanced Video Coding\nDuration : 1h 16mn\nBit rate mode : Variable\nBit rate : 3 516 Kbps\nMaximum bit rate : 14.3 Mbps\nWidth : 1 280 pixels\nHeight : 720 pixels\nDisplay aspect ratio : 16:9\nFrame rate mode : Constant\nFrame rate : 23.976 fps\nColor space : YUV\nChroma subsampling : 4:2:0\nBit depth : 8 bits\nScan type : Progressive\nBits/(Pixel*Frame) : 0.159\nStream size : 1.88 GiB (87%)\nWriting library : x264 \n\nAudio\nID : 2\nFormat : AAC\nFormat/Info : Advanced Audio Codec\nFormat version : Version 4\nFormat profile : LC\nFormat settings, SBR : No\nCodec ID : 40\nDuration : 1h 16mn\nBit rate mode : Variable\nBit rate : 511 Kbps\nMaximum bit rate : 580 Kbps\nChannel(s) : 6 channels\nChannel positions : Front: L C R, Side: L R, LFE\nSampling rate : 48.0 KHz\nStream size : 280 MiB (13%)\n\n\nGreets:\n\nINK,CRYS,IMAGINE,LKRG,FXG,3Li,FLAWL3SS,TA,iLLUSiON,ViSiON,LU,TheFalcon007,MYSTiC,PrisM,Noir,WBZ,LAP,Rx,Kingdom,SAFCuk009+Fabreezy,HDLiTE,TWiZTED,ExtraTorrentRG.ELEKTRI4KA,MAGNAT,CM8\nAnd to all the other p2p grps past and present\n\n\n\n\n\n\n================================== &lt;a href=&quot;\nhttp://thepiratebay.se/user/hiest&quot; rel=&quot;nofollow&quot; target=&quot;_NEW&quot;&gt;\nhttp://thepiratebay.se/user/hiest&lt;/a&gt;\n==================================\n\n\n\n\n\n\nScreen Shots:\n &lt;a href=&quot;\nhttp://www.postimg.com/30000/29138.jpg&quot; rel=&quot;nofollow&quot; target=&quot;_NEW&quot;&gt;\nhttp://www.postimg.com/30000/29138.jpg&lt;/a&gt;\n &lt;a href=&quot;\nhttp://www.postimg.com/30000/29139.jpg&quot; rel=&quot;nofollow&quot; target=&quot;_NEW&quot;&gt;\nhttp://www.postimg.com/30000/29139.jpg&lt;/a&gt;\n &lt;a href=&quot;\nhttp://www.postimg.com/30000/29140.jpg&quot; rel=&quot;nofollow&quot; target=&quot;_NEW&quot;&gt;\nhttp://www.postimg.com/30000/29140.jpg&lt;/a&gt;\n &lt;a href=&quot;\nhttp://www.postimg.com/30000/29141.jpg&quot; rel=&quot;nofollow&quot; target=&quot;_NEW&quot;&gt;\nhttp://www.postimg.com/30000/29141.jpg&lt;/a&gt;\n\n\n #######                         #######                      \n #       ###### ###### #         #       #####  ###### ###### \n #       #      #      #         #       #    # #      #      \n #####   #####  #####  #         #####   #    # #####  #####  \n #       #      #      #         #       #####  #      #      \n #       #      #      #         #       #   #  #      #      \n #       ###### ###### ######    #       #    # ###### ###### \n                                                              ","torrent":{"xt":"urn:btih:0d992a3fd0fe0bb691a5b0e5d829a5494ff683a0","amp;dn":"All.Star.Superman.2011.720p.BRRip.x264.Feel-Free","amp;tr":["udp%3A%2F%2Ftracker.openbittorrent.com%3A80","udp%3A%2F%2Fopen.demonii.com%3A1337","udp%3A%2F%2Ftracker.coppersurfer.tk%3A6969","udp%3A%2F%2Fexodus.desync.com%3A6969"],"infoHash":"0d992a3fd0fe0bb691a5b0e5d829a5494ff683a0","infoHashBuffer":{"type":"Buffer","data":[13,153,42,63,208,254,11,182,145,165,176,229,216,41,165,73,79,246,131,160]},"announce":[],"urlList":[]}}